<svg width="600" height="600" viewBox="0 0 600 600" fill="none" xmlns="http://www.w3.org/2000/svg">
  <rect width="600" height="600" fill="#07090D"/>
  <g opacity="0.15" stroke="#F4F5F7" stroke-width="1">
    <path d="M0 60H600"/><path d="M0 120H600"/><path d="M0 180H600"/><path d="M0 240H600"/><path d="M0 300H600"/><path d="M0 360H600"/><path d="M0 420H600"/><path d="M0 480H600"/><path d="M0 540H600"/>
    <path d="M60 0V600"/><path d="M120 0V600"/><path d="M180 0V600"/><path d="M240 0V600"/><path d="M300 0V600"/><path d="M360 0V600"/><path d="M420 0V600"/><path d="M480 0V600"/><path d="M540 0V600"/>
  </g>
  <g opacity="0.3">
    <circle cx="92" cy="104" r="2" fill="#5AD6FF"/>
    <circle cx="210" cy="158" r="1.5" fill="#FF5C7C"/>
    <circle cx="388" cy="92" r="2" fill="#C6FF3B"/>
    <circle cx="470" cy="260" r="1.5" fill="#8B5CFF"/>
    <circle cx="130" cy="460" r="2" fill="#F4F5F7"/>
    <circle cx="530" cy="512" r="1.5" fill="#5AD6FF"/>
  </g>
</svg>