<svg xmlns="http://www.w3.org/2000/svg" viewBox="0 0 120 120" preserveAspectRatio="none"><rect width="120" height="120" fill="transparent"/><g opacity="0.35"><rect x="4" y="8" width="1" height="1" fill="#fff"/><rect x="18" y="21" width="1" height="1" fill="#000"/><rect x="29" y="14" width="1" height="1" fill="#fff"/><rect x="40" y="35" width="1" height="1" fill="#000"/><rect x="51" y="17" width="1" height="1" fill="#fff"/><rect x="63" y="28" width="1" height="1" fill="#000"/><rect x="74" y="9" width="1" height="1" fill="#fff"/><rect x="86" y="19" width="1" height="1" fill="#000"/><rect x="97" y="31" width="1" height="1" fill="#fff"/><rect x="108" y="11" width="1" height="1" fill="#000"/><rect x="11" y="46" width="1" height="1" fill="#000"/><rect x="23" y="54" width="1" height="1" fill="#fff"/><rect x="36" y="49" width="1" height="1" fill="#000"/><rect x="48" y="59" width="1" height="1" fill="#fff"/><rect x="59" y="44" width="1" height="1" fill="#000"/><rect x="70" y="61" width="1" height="1" fill="#fff"/><rect x="83" y="52" width="1" height="1" fill="#000"/><rect x="95" y="47" width="1" height="1" fill="#fff"/><rect x="104" y="63" width="1" height="1" fill="#000"/><rect x="8" y="78" width="1" height="1" fill="#fff"/><rect x="20" y="88" width="1" height="1" fill="#000"/><rect x="34" y="74" width="1" height="1" fill="#fff"/><rect x="47" y="91" width="1" height="1" fill="#000"/><rect x="58" y="80" width="1" height="1" fill="#fff"/><rect x="69" y="96" width="1" height="1" fill="#000"/><rect x="82" y="84" width="1" height="1" fill="#fff"/><rect x="92" y="99" width="1" height="1" fill="#000"/><rect x="106" y="76" width="1" height="1" fill="#fff"/><rect x="14" y="108" width="1" height="1" fill="#000"/><rect x="26" y="114" width="1" height="1" fill="#fff"/><rect x="39" y="104" width="1" height="1" fill="#000"/><rect x="54" y="116" width="1" height="1" fill="#fff"/><rect x="67" y="107" width="1" height="1" fill="#000"/><rect x="79" y="112" width="1" height="1" fill="#fff"/><rect x="91" y="106" width="1" height="1" fill="#000"/><rect x="113" y="118" width="1" height="1" fill="#fff"/></g></svg>